<mxfile host="app.diagrams.net" modified="2024-06-03T13:36:30.199Z" agent="Mozilla/5.0 (Windows NT 10.0; Win64; x64) AppleWebKit/537.36 (KHTML, like Gecko) Chrome/123.0.0.0 Safari/537.36 OPR/109.0.0.0 (Edition std-1)" etag="23AhbxyJcBa99W9groi-" version="24.4.13" type="device">
  <diagram id="C5RBs43oDa-KdzZeNtuy" name="Page-1">
    <mxGraphModel dx="1956" dy="784" grid="1" gridSize="10" guides="1" tooltips="1" connect="1" arrows="1" fold="1" page="1" pageScale="1" pageWidth="827" pageHeight="1169" math="0" shadow="0">
      <root>
        <mxCell id="WIyWlLk6GJQsqaUBKTNV-0" />
        <mxCell id="WIyWlLk6GJQsqaUBKTNV-1" parent="WIyWlLk6GJQsqaUBKTNV-0" />
        <mxCell id="6xvavEM2mVxFR6UG24Jl-1" value="Team" style="rounded=0;whiteSpace=wrap;html=1;" vertex="1" parent="WIyWlLk6GJQsqaUBKTNV-1">
          <mxGeometry x="354" y="120" width="120" height="60" as="geometry" />
        </mxCell>
        <mxCell id="6xvavEM2mVxFR6UG24Jl-2" value="Trainer" style="rounded=0;whiteSpace=wrap;html=1;" vertex="1" parent="WIyWlLk6GJQsqaUBKTNV-1">
          <mxGeometry x="140" y="120" width="120" height="60" as="geometry" />
        </mxCell>
        <mxCell id="6xvavEM2mVxFR6UG24Jl-3" value="Fan" style="rounded=0;whiteSpace=wrap;html=1;" vertex="1" parent="WIyWlLk6GJQsqaUBKTNV-1">
          <mxGeometry x="580" y="120" width="120" height="60" as="geometry" />
        </mxCell>
        <mxCell id="6xvavEM2mVxFR6UG24Jl-8" value="" style="endArrow=none;html=1;rounded=0;exitX=0.5;exitY=1;exitDx=0;exitDy=0;" edge="1" parent="WIyWlLk6GJQsqaUBKTNV-1" source="6xvavEM2mVxFR6UG24Jl-1" target="6xvavEM2mVxFR6UG24Jl-0">
          <mxGeometry width="50" height="50" relative="1" as="geometry">
            <mxPoint x="414" y="180" as="sourcePoint" />
            <mxPoint x="430" y="350" as="targetPoint" />
          </mxGeometry>
        </mxCell>
        <mxCell id="6xvavEM2mVxFR6UG24Jl-16" value="m" style="edgeLabel;html=1;align=center;verticalAlign=middle;resizable=0;points=[];" vertex="1" connectable="0" parent="6xvavEM2mVxFR6UG24Jl-8">
          <mxGeometry x="0.7472" relative="1" as="geometry">
            <mxPoint as="offset" />
          </mxGeometry>
        </mxCell>
        <mxCell id="6xvavEM2mVxFR6UG24Jl-17" value="1" style="edgeLabel;html=1;align=center;verticalAlign=middle;resizable=0;points=[];" vertex="1" connectable="0" parent="6xvavEM2mVxFR6UG24Jl-8">
          <mxGeometry x="-0.7385" relative="1" as="geometry">
            <mxPoint as="offset" />
          </mxGeometry>
        </mxCell>
        <mxCell id="6xvavEM2mVxFR6UG24Jl-0" value="Spieler" style="rounded=0;whiteSpace=wrap;html=1;" vertex="1" parent="WIyWlLk6GJQsqaUBKTNV-1">
          <mxGeometry x="354" y="290" width="120" height="60" as="geometry" />
        </mxCell>
        <mxCell id="6xvavEM2mVxFR6UG24Jl-9" value="" style="endArrow=none;html=1;rounded=0;exitX=1;exitY=0.5;exitDx=0;exitDy=0;entryX=0;entryY=0.5;entryDx=0;entryDy=0;" edge="1" parent="WIyWlLk6GJQsqaUBKTNV-1" source="6xvavEM2mVxFR6UG24Jl-2" target="6xvavEM2mVxFR6UG24Jl-1">
          <mxGeometry width="50" height="50" relative="1" as="geometry">
            <mxPoint x="300" y="210" as="sourcePoint" />
            <mxPoint x="350" y="160" as="targetPoint" />
          </mxGeometry>
        </mxCell>
        <mxCell id="6xvavEM2mVxFR6UG24Jl-14" value="1" style="edgeLabel;html=1;align=center;verticalAlign=middle;resizable=0;points=[];" vertex="1" connectable="0" parent="6xvavEM2mVxFR6UG24Jl-9">
          <mxGeometry x="0.7258" y="-1" relative="1" as="geometry">
            <mxPoint as="offset" />
          </mxGeometry>
        </mxCell>
        <mxCell id="6xvavEM2mVxFR6UG24Jl-15" value="m" style="edgeLabel;html=1;align=center;verticalAlign=middle;resizable=0;points=[];" vertex="1" connectable="0" parent="6xvavEM2mVxFR6UG24Jl-9">
          <mxGeometry x="-0.78" y="1" relative="1" as="geometry">
            <mxPoint as="offset" />
          </mxGeometry>
        </mxCell>
        <mxCell id="6xvavEM2mVxFR6UG24Jl-12" value="" style="endArrow=none;html=1;rounded=0;entryX=1;entryY=0.5;entryDx=0;entryDy=0;exitX=0;exitY=0.5;exitDx=0;exitDy=0;" edge="1" parent="WIyWlLk6GJQsqaUBKTNV-1" source="6xvavEM2mVxFR6UG24Jl-3" target="6xvavEM2mVxFR6UG24Jl-1">
          <mxGeometry width="50" height="50" relative="1" as="geometry">
            <mxPoint x="490" y="270" as="sourcePoint" />
            <mxPoint x="540" y="220" as="targetPoint" />
          </mxGeometry>
        </mxCell>
        <mxCell id="6xvavEM2mVxFR6UG24Jl-18" value="1" style="edgeLabel;html=1;align=center;verticalAlign=middle;resizable=0;points=[];" vertex="1" connectable="0" parent="6xvavEM2mVxFR6UG24Jl-12">
          <mxGeometry x="0.7547" y="-1" relative="1" as="geometry">
            <mxPoint as="offset" />
          </mxGeometry>
        </mxCell>
        <mxCell id="6xvavEM2mVxFR6UG24Jl-19" value="m" style="edgeLabel;html=1;align=center;verticalAlign=middle;resizable=0;points=[];" vertex="1" connectable="0" parent="6xvavEM2mVxFR6UG24Jl-12">
          <mxGeometry x="-0.7547" relative="1" as="geometry">
            <mxPoint as="offset" />
          </mxGeometry>
        </mxCell>
        <mxCell id="6xvavEM2mVxFR6UG24Jl-13" value="" style="endArrow=none;html=1;rounded=0;exitX=1;exitY=0.5;exitDx=0;exitDy=0;entryX=0.5;entryY=1;entryDx=0;entryDy=0;" edge="1" parent="WIyWlLk6GJQsqaUBKTNV-1" source="6xvavEM2mVxFR6UG24Jl-0" target="6xvavEM2mVxFR6UG24Jl-3">
          <mxGeometry width="50" height="50" relative="1" as="geometry">
            <mxPoint x="510" y="310" as="sourcePoint" />
            <mxPoint x="560" y="260" as="targetPoint" />
            <Array as="points">
              <mxPoint x="640" y="320" />
            </Array>
          </mxGeometry>
        </mxCell>
        <mxCell id="6xvavEM2mVxFR6UG24Jl-20" value="m" style="edgeLabel;html=1;align=center;verticalAlign=middle;resizable=0;points=[];" vertex="1" connectable="0" parent="6xvavEM2mVxFR6UG24Jl-13">
          <mxGeometry x="-0.9113" y="-2" relative="1" as="geometry">
            <mxPoint as="offset" />
          </mxGeometry>
        </mxCell>
        <mxCell id="6xvavEM2mVxFR6UG24Jl-21" value="m" style="edgeLabel;html=1;align=center;verticalAlign=middle;resizable=0;points=[];" vertex="1" connectable="0" parent="6xvavEM2mVxFR6UG24Jl-13">
          <mxGeometry x="0.9135" y="-1" relative="1" as="geometry">
            <mxPoint as="offset" />
          </mxGeometry>
        </mxCell>
        <mxCell id="6xvavEM2mVxFR6UG24Jl-26" value="Trainer" style="swimlane;whiteSpace=wrap;html=1;" vertex="1" parent="WIyWlLk6GJQsqaUBKTNV-1">
          <mxGeometry x="-10" y="450" width="240" height="250" as="geometry" />
        </mxCell>
        <mxCell id="6xvavEM2mVxFR6UG24Jl-30" value="&lt;div style=&quot;text-align: left;&quot;&gt;&lt;div&gt;- trainerid: String&lt;/div&gt;&lt;div&gt;&lt;br style=&quot;text-align: center;&quot;&gt;&lt;/div&gt;&lt;/div&gt;&lt;div style=&quot;text-align: left;&quot;&gt;&lt;span style=&quot;background-color: initial;&quot;&gt;- vorname: String&lt;/span&gt;&lt;/div&gt;&lt;div style=&quot;text-align: left;&quot;&gt;&lt;span style=&quot;background-color: initial;&quot;&gt;&lt;br&gt;&lt;/span&gt;&lt;/div&gt;&lt;div style=&quot;text-align: left;&quot;&gt;&lt;span style=&quot;background-color: initial;&quot;&gt;- nachname: String&lt;/span&gt;&lt;/div&gt;&lt;div&gt;&lt;br&gt;&lt;/div&gt;&lt;div style=&quot;text-align: left;&quot;&gt;- email: String&lt;/div&gt;" style="text;html=1;align=center;verticalAlign=middle;resizable=0;points=[];autosize=1;strokeColor=none;fillColor=none;" vertex="1" parent="6xvavEM2mVxFR6UG24Jl-26">
          <mxGeometry x="10" y="35" width="120" height="110" as="geometry" />
        </mxCell>
        <mxCell id="6xvavEM2mVxFR6UG24Jl-27" value="Team" style="swimlane;whiteSpace=wrap;html=1;" vertex="1" parent="WIyWlLk6GJQsqaUBKTNV-1">
          <mxGeometry x="291" y="450" width="246" height="250" as="geometry" />
        </mxCell>
        <mxCell id="6xvavEM2mVxFR6UG24Jl-28" value="Spieler" style="swimlane;whiteSpace=wrap;html=1;" vertex="1" parent="6xvavEM2mVxFR6UG24Jl-27">
          <mxGeometry x="110" y="120" width="129" height="125" as="geometry" />
        </mxCell>
        <mxCell id="6xvavEM2mVxFR6UG24Jl-38" value="&lt;div style=&quot;&quot;&gt;&lt;div&gt;- spielerid: String&lt;/div&gt;&lt;div&gt;- vorname: String&lt;/div&gt;&lt;div&gt;- nachname: String&lt;/div&gt;&lt;div&gt;- alter: int&lt;/div&gt;&lt;div&gt;- position: string&lt;/div&gt;&lt;div&gt;&lt;br&gt;&lt;/div&gt;&lt;/div&gt;" style="text;html=1;align=left;verticalAlign=middle;resizable=0;points=[];autosize=1;strokeColor=none;fillColor=none;" vertex="1" parent="6xvavEM2mVxFR6UG24Jl-28">
          <mxGeometry x="9" y="25" width="120" height="100" as="geometry" />
        </mxCell>
        <mxCell id="6xvavEM2mVxFR6UG24Jl-33" value="&lt;div style=&quot;text-align: left;&quot;&gt;&lt;div&gt;- teamid: String&lt;/div&gt;&lt;div&gt;&lt;br style=&quot;text-align: center;&quot;&gt;&lt;/div&gt;&lt;/div&gt;&lt;div style=&quot;text-align: left;&quot;&gt;&lt;span style=&quot;background-color: initial;&quot;&gt;- teamname: String&lt;/span&gt;&lt;/div&gt;&lt;div style=&quot;text-align: left;&quot;&gt;&lt;span style=&quot;background-color: initial;&quot;&gt;&lt;br&gt;&lt;/span&gt;&lt;/div&gt;&lt;div style=&quot;text-align: left;&quot;&gt;&lt;span style=&quot;background-color: initial;&quot;&gt;- anzaglSpieler: int&lt;/span&gt;&lt;/div&gt;&lt;div style=&quot;text-align: left;&quot;&gt;&lt;span style=&quot;background-color: initial;&quot;&gt;&lt;br&gt;&lt;/span&gt;&lt;/div&gt;&lt;div style=&quot;text-align: left;&quot;&gt;&lt;span style=&quot;background-color: initial;&quot;&gt;- liga: String&lt;/span&gt;&lt;/div&gt;&lt;div&gt;&lt;br&gt;&lt;/div&gt;" style="text;html=1;align=center;verticalAlign=middle;resizable=0;points=[];autosize=1;strokeColor=none;fillColor=none;" vertex="1" parent="6xvavEM2mVxFR6UG24Jl-27">
          <mxGeometry y="40" width="130" height="130" as="geometry" />
        </mxCell>
        <mxCell id="6xvavEM2mVxFR6UG24Jl-29" value="Fan" style="swimlane;whiteSpace=wrap;html=1;" vertex="1" parent="WIyWlLk6GJQsqaUBKTNV-1">
          <mxGeometry x="600" y="450" width="260" height="250" as="geometry" />
        </mxCell>
        <mxCell id="6xvavEM2mVxFR6UG24Jl-39" value="&lt;div style=&quot;text-align: left;&quot;&gt;&lt;div&gt;- fanid: String&lt;/div&gt;&lt;div&gt;&lt;br style=&quot;text-align: center;&quot;&gt;&lt;/div&gt;&lt;/div&gt;&lt;div style=&quot;text-align: left;&quot;&gt;&lt;span style=&quot;background-color: initial;&quot;&gt;- vorname: String&lt;/span&gt;&lt;/div&gt;&lt;div style=&quot;text-align: left;&quot;&gt;&lt;span style=&quot;background-color: initial;&quot;&gt;&lt;br&gt;&lt;/span&gt;&lt;/div&gt;&lt;div style=&quot;text-align: left;&quot;&gt;&lt;span style=&quot;background-color: initial;&quot;&gt;- nachname: String&lt;/span&gt;&lt;/div&gt;&lt;div style=&quot;text-align: left;&quot;&gt;&lt;span style=&quot;background-color: initial;&quot;&gt;&lt;br&gt;&lt;/span&gt;&lt;/div&gt;&lt;div style=&quot;text-align: left;&quot;&gt;&lt;span style=&quot;background-color: initial;&quot;&gt;- saisonkartennummer: int&lt;/span&gt;&lt;/div&gt;&lt;div&gt;&lt;br&gt;&lt;/div&gt;" style="text;html=1;align=center;verticalAlign=middle;resizable=0;points=[];autosize=1;strokeColor=none;fillColor=none;" vertex="1" parent="6xvavEM2mVxFR6UG24Jl-29">
          <mxGeometry x="20" y="35" width="160" height="130" as="geometry" />
        </mxCell>
      </root>
    </mxGraphModel>
  </diagram>
</mxfile>
